<svg width="24" height="24" viewBox="0 0 24 24" fill="none" xmlns="http://www.w3.org/2000/svg">
<path d="M9 10.9444V5.66667C9 3.91777 10.3431 2.5 12 2.5C13.6569 2.5 15 3.91777 15 5.66667V10.9099M10.4 21.5H13.6C15.8402 21.5 16.9603 21.5 17.816 21.0398C18.5686 20.635 19.1805 19.9891 19.564 19.1947C20 18.2914 20 17.1091 20 14.7444V12.2111C20 11.0288 20 10.4376 19.782 9.986C19.5903 9.58878 19.2843 9.26583 18.908 9.06343C18.4802 8.83333 17.9201 8.83333 16.8 8.83333H7.2C6.0799 8.83333 5.51984 8.83333 5.09202 9.06343C4.71569 9.26583 4.40973 9.58878 4.21799 9.986C4 10.4376 4 11.0288 4 12.2111V14.7444C4 17.1091 4 18.2914 4.43597 19.1947C4.81947 19.9891 5.43139 20.635 6.18404 21.0398C7.03968 21.5 8.15979 21.5 10.4 21.5Z" stroke="#ADB2D4" stroke-width="1.5" stroke-linecap="round" stroke-linejoin="round"/>
</svg>
