<svg width="18" height="18" viewBox="0 0 18 18" fill="none" xmlns="http://www.w3.org/2000/svg">
<path id="Vector" d="M15.3485 7.91569V13.8978C15.3485 14.7245 15.0111 15.5067 14.4161 16.0934C13.8212 16.6711 13.0131 17 12.1785 17H5.82954C4.98597 17 4.17794 16.6711 3.59188 16.0934C2.99695 15.5156 2.6684 14.7245 2.6684 13.9067V7.92459M15.4821 7.92435C11.1755 7.47102 6.83337 7.47102 2.52676 7.92435C2.30477 7.95101 2.08278 7.92435 1.86967 7.84435C1.65656 7.76435 1.47896 7.6399 1.328 7.47101C1.18593 7.30212 1.07939 7.10658 1.03499 6.89325C0.981709 6.67992 0.990579 6.45769 1.05274 6.24436L1.78976 3.35551C1.95847 2.67997 2.35805 2.08442 2.91746 1.65776C3.47688 1.2311 4.1606 1 4.87985 1H13.129C13.8305 1 14.5231 1.2311 15.0825 1.65776C15.642 2.08442 16.0326 2.67997 16.2102 3.35551L16.9473 6.24436C17.0094 6.45769 17.0183 6.67102 16.965 6.88435C16.9206 7.09768 16.823 7.29323 16.672 7.46211C16.5388 7.631 16.3434 7.75545 16.1392 7.83545C15.935 7.91545 15.713 7.94212 15.4821 7.91545V7.92435ZM8.88418 11.6839H9.12394C9.69224 11.6839 10.2428 11.9061 10.6423 12.2972C11.0419 12.6883 11.2728 13.2216 11.2728 13.7816V16.9993H6.73533V13.7816C6.73533 13.2216 6.95731 12.6883 7.36577 12.2972C7.76535 11.9061 8.31588 11.6839 8.88418 11.6839Z" stroke="#ADB2D4" stroke-width="1.5" stroke-miterlimit="10" stroke-linecap="round"/>
</svg>
