<svg width="20" height="20" viewBox="0 0 20 20" fill="none" xmlns="http://www.w3.org/2000/svg">
<path id="Vector" d="M19.9798 8.40588C19.3656 4.11639 15.9864 0.649055 11.5931 0.0201111C10.5148 -0.134068 9.51144 0.614954 9.3574 1.69366L8.63662 6.73842C8.32627 7.04869 1.31544 14.0588 0.956178 14.418C-0.318726 15.6927 -0.318726 17.7669 0.956178 19.0416C2.23401 20.3194 4.30232 20.3195 5.58031 19.0416C5.93965 18.6823 12.9505 11.6723 13.2608 11.362L18.3061 10.6413C19.3842 10.4874 20.1343 9.48455 19.9798 8.40588ZM4.65549 18.1169C4.2849 18.4875 3.79227 18.6914 3.26823 18.6914C2.74418 18.6914 2.25155 18.4874 1.88097 18.1169C1.11608 17.352 1.11608 16.1076 1.88097 15.3427L6.04267 11.1815L8.81715 13.9557L4.65549 18.1169ZM9.74205 13.0309L6.96761 10.2567L9.25321 7.97135L12.0277 10.7456L9.74205 13.0309ZM18.1211 9.34674L13.1837 10.052L9.9468 6.81545L10.6522 1.87862C10.7044 1.51296 11.0482 1.26319 11.4077 1.31468C11.7556 1.36444 12.0969 1.4355 12.4304 1.52628L11.9058 3.23936C11.8 3.58468 11.9943 3.9503 12.3396 4.05604C12.6852 4.16178 13.0507 3.96737 13.1564 3.62225L13.6633 1.96679C14.431 2.30952 15.1403 2.7619 15.7708 3.30397L14.4055 4.66913C14.1501 4.92448 14.1501 5.3385 14.4055 5.59385C14.6608 5.8492 15.0749 5.84924 15.3303 5.59385L16.6956 4.2287C17.2399 4.86167 17.6939 5.57409 18.0371 6.34518L16.3816 6.84846C16.0361 6.9535 15.8411 7.31877 15.9462 7.66428C16.0512 8.00971 16.4164 8.20475 16.7621 8.09967L18.4761 7.57861C18.5656 7.90893 18.6358 8.24689 18.6851 8.59127C18.7371 8.95424 18.4834 9.29502 18.1211 9.34674Z" fill="#ADB2D4"/>
</svg>
