<svg width="22" height="22" viewBox="0 0 22 22" fill="none" xmlns="http://www.w3.org/2000/svg">
<path id="Vector (Stroke)" fill-rule="evenodd" clip-rule="evenodd" d="M9.0747 1C9.0747 0.585786 9.41049 0.25 9.8247 0.25H17.6874C19.8545 0.25 21.75 1.86159 21.75 4V13.5222C21.75 13.9364 21.4142 14.2722 21 14.2722C20.5858 14.2722 20.25 13.9364 20.25 13.5222V4C20.25 2.8273 19.1704 1.75 17.6874 1.75H9.8247C9.41049 1.75 9.0747 1.41421 9.0747 1ZM4.7501 4.75C3.00768 4.75 1.75 5.98722 1.75 7.33333V17.6667C1.75 19.0128 3.00768 20.25 4.7501 20.25H13.8128C15.5553 20.25 16.8129 19.0128 16.8129 17.6667V7.33333C16.8129 5.98722 15.5553 4.75 13.8128 4.75H4.7501ZM0.25 7.33333C0.25 4.99754 2.35027 3.25 4.7501 3.25H13.8128C16.2127 3.25 18.3129 4.99754 18.3129 7.33333V17.6667C18.3129 20.0025 16.2127 21.75 13.8128 21.75H4.7501C2.35027 21.75 0.25 20.0025 0.25 17.6667V7.33333ZM4.72514 17C4.72514 16.5858 5.06093 16.25 5.47514 16.25H9.90023C10.3144 16.25 10.6502 16.5858 10.6502 17C10.6502 17.4142 10.3144 17.75 9.90023 17.75H5.47514C5.06093 17.75 4.72514 17.4142 4.72514 17Z" fill="#171D4B"/>
</svg>
