<svg width="16" height="16" viewBox="0 0 16 16" fill="none" xmlns="http://www.w3.org/2000/svg">
<path d="M8 4.5C8.82917 4.5 9.49999 3.82915 9.49999 2.99999C9.49999 2.17082 8.82917 1.5 8 1.5C7.17083 1.5 6.5 2.17082 6.5 2.99999C6.5 3.82915 7.17083 4.5 8 4.5Z" fill="#ADB2D4"/>
<path d="M8 9.5C8.82917 9.5 9.49999 8.82915 9.49999 7.99999C9.49999 7.17082 8.82917 6.5 8 6.5C7.17083 6.5 6.5 7.17082 6.5 7.99999C6.5 8.82915 7.17083 9.5 8 9.5Z" fill="#ADB2D4"/>
<path d="M8 14.5C8.82917 14.5 9.49999 13.8292 9.49999 13C9.49999 12.1708 8.82917 11.5 8 11.5C7.17083 11.5 6.5 12.1708 6.5 13C6.5 13.8292 7.17083 14.5 8 14.5Z" fill="#ADB2D4"/>
</svg>
