<svg width="24" height="24" viewBox="0 0 24 24" fill="none" xmlns="http://www.w3.org/2000/svg">
<path d="M3.1977 3.1977C2.95806 3.43734 2.93628 3.81234 3.13235 4.07659L3.1977 4.1523L6.82882 7.78341C5.09903 8.99794 3.80619 10.8119 3.26899 12.958C3.17847 13.3196 3.39825 13.6862 3.75988 13.7767C4.12152 13.8672 4.48806 13.6475 4.57859 13.2858C5.05512 11.3822 6.23201 9.78553 7.80075 8.75507L9.42942 10.3839C8.79266 11.0332 8.4 11.9229 8.4 12.9042C8.4 14.8924 10.0118 16.5042 12 16.5042C12.9814 16.5042 13.8709 16.1115 14.5204 15.4747L19.8477 20.8023C20.1113 21.0659 20.5387 21.0659 20.8023 20.8023C21.042 20.5627 21.0637 20.1877 20.8676 19.9234L20.8023 19.8478L15.3001 14.345L15.3012 14.3436L9.0469 8.09204L9.048 8.0904L8.02805 7.07294L4.1523 3.1977C3.8887 2.9341 3.4613 2.9341 3.1977 3.1977ZM12 6.15C11.0997 6.15 10.2262 6.28327 9.39998 6.5325L10.5133 7.64508C10.9955 7.54979 11.4928 7.5 12 7.5C15.5308 7.5 18.5789 9.91224 19.4224 13.2899C19.5128 13.6515 19.8792 13.8715 20.2409 13.7812C20.6026 13.6908 20.8225 13.3245 20.7322 12.9627C19.7395 8.98745 16.154 6.15 12 6.15ZM12.1752 9.30836L15.5964 12.729C15.5048 10.8778 14.0225 9.39688 12.1752 9.30836Z" fill="#ADB2D4"/>
</svg>
