<svg width="24" height="24" viewBox="0 0 24 24" fill="none" xmlns="http://www.w3.org/2000/svg">
<path d="M12.0006 10.0463C14.0452 10.0463 15.7026 11.6029 15.7026 13.5231C15.7026 15.4434 14.0452 17 12.0006 17C9.95599 17 8.29852 15.4434 8.29852 13.5231C8.29852 11.6029 9.95599 10.0463 12.0006 10.0463ZM12.0006 7C16.2704 7 19.9563 9.73803 20.9791 13.5751C21.0722 13.9243 20.8461 14.2784 20.4743 14.3658C20.1024 14.4532 19.7254 14.241 19.6323 13.8917C18.7634 10.6315 15.6298 8.30382 12.0006 8.30382C8.36973 8.30382 5.23517 10.6336 4.36775 13.8956C4.27486 14.2449 3.89805 14.4574 3.52611 14.3701C3.15418 14.2829 2.92796 13.929 3.02085 13.5797C4.04177 9.74039 7.72886 7 12.0006 7Z" fill="#ADB2D4"/>
</svg>
