<svg width="24" height="24" viewBox="0 0 24 24" fill="none" xmlns="http://www.w3.org/2000/svg">
<path d="M4.34961 11.9988H19.6497V17.9996C19.6497 19.6598 18.3097 21 16.6497 21H7.34961C5.68961 21 4.34961 19.6598 4.34961 17.9996V11.9988Z" stroke="#ADB2D4" stroke-width="1.5" stroke-linecap="round" stroke-linejoin="round"/>
<path d="M20 8.39832H4C3.44772 8.39832 3 8.84609 3 9.39845V10.9987C3 11.551 3.44772 11.9988 4 11.9988H20C20.5523 11.9988 21 11.551 21 10.9987V9.39845C21 8.84609 20.5523 8.39832 20 8.39832Z" stroke="#ADB2D4" stroke-width="1.5" stroke-linecap="round" stroke-linejoin="round"/>
<path d="M13.5797 11.9988H10.4297V21H13.5797V11.9988Z" stroke="#ADB2D4" stroke-width="1.5" stroke-linecap="round" stroke-linejoin="round"/>
<path d="M9.76 8.26831C11.92 8.68837 12.46 8.16829 12.05 5.978C11.57 3.41766 9.03999 2.1275 7.49999 3.6577C5.93999 5.1879 7.22 7.77825 9.76 8.26831Z" stroke="#ADB2D4" stroke-width="1.5" stroke-linecap="round" stroke-linejoin="round"/>
<path d="M14.5905 8.26836C12.4305 8.68842 11.8905 8.16834 12.3005 5.97805C12.7805 3.41771 15.3105 2.12754 16.8505 3.65775C18.4105 5.18795 17.1305 7.7783 14.5905 8.26836Z" stroke="#ADB2D4" stroke-width="1.5" stroke-linecap="round" stroke-linejoin="round"/>
</svg>
