<svg width="20" height="20" viewBox="0 0 20 20" fill="none" xmlns="http://www.w3.org/2000/svg">
<path id="Vector" d="M19 15.6955V9.58487C19 8.99639 18.9994 8.70199 18.9264 8.42807C18.8616 8.18543 18.7553 7.95575 18.6114 7.74821C18.449 7.51402 18.2233 7.31982 17.7708 6.93228L12.3708 2.30639C11.5309 1.58685 11.1109 1.22727 10.6383 1.09043C10.2218 0.969857 9.77792 0.969857 9.36145 1.09043C8.88917 1.22717 8.46977 1.58641 7.63115 2.30486L2.22937 6.93228C1.77697 7.31982 1.55129 7.51402 1.38891 7.74821C1.24501 7.95575 1.13787 8.18543 1.07309 8.42807C1 8.70199 1 8.99639 1 9.58487V15.6955C1 16.7217 1 17.2348 1.17127 17.6397C1.39963 18.1793 1.83736 18.6087 2.38868 18.8323C2.80216 19 3.32634 19 4.37471 19C5.42308 19 5.94784 19 6.36132 18.8323C6.91264 18.6087 7.35025 18.1795 7.57862 17.6397C7.74989 17.2349 7.75 16.7217 7.75 15.6953V14.5939C7.75 13.3773 8.75733 12.3911 10 12.3911C11.2427 12.3911 12.25 13.3773 12.25 14.5939V15.6953C12.25 16.7217 12.25 17.2349 12.4212 17.6397C12.6496 18.1795 13.0873 18.6087 13.6387 18.8323C14.0521 19 14.5764 19 15.6247 19C16.6731 19 17.1979 19 17.6113 18.8323C18.1627 18.6087 18.6003 18.1793 18.8287 17.6397C18.9999 17.2348 19 16.7217 19 15.6955Z" stroke="#ADB2D4" stroke-width="1.5" stroke-linecap="round" stroke-linejoin="round"/>
</svg>
