<svg width="24" height="24" viewBox="0 0 24 24" fill="none" xmlns="http://www.w3.org/2000/svg">
<path d="M10.2 10.2C10.2 10.022 10.1472 9.84799 10.0483 9.69998C9.94943 9.55198 9.80887 9.43663 9.64442 9.36851C9.47996 9.30039 9.299 9.28256 9.12442 9.31729C8.94984 9.35202 8.78947 9.43774 8.66361 9.5636C8.53774 9.68947 8.45202 9.84983 8.4173 10.0244C8.38257 10.199 8.40039 10.38 8.46851 10.5444C8.53663 10.7089 8.65199 10.8494 8.79999 10.9483C8.94799 11.0472 9.122 11.1 9.3 11.1C9.5387 11.1 9.76762 11.0052 9.9364 10.8364C10.1052 10.6676 10.2 10.4387 10.2 10.2ZM14.25 13.854C14.1478 13.7941 14.0348 13.755 13.9175 13.7389C13.8002 13.7228 13.6808 13.7299 13.5662 13.76C13.4517 13.7901 13.3442 13.8426 13.25 13.9143C13.1557 13.986 13.0765 14.0756 13.017 14.178C12.9148 14.3576 12.7669 14.507 12.5883 14.6109C12.4096 14.7148 12.2067 14.7695 12 14.7695C11.7933 14.7695 11.5904 14.7148 11.4117 14.6109C11.2331 14.507 11.0852 14.3576 10.983 14.178C10.9235 14.0756 10.8443 13.986 10.75 13.9143C10.6558 13.8426 10.5483 13.7901 10.4338 13.76C10.3192 13.7299 10.1999 13.7228 10.0825 13.7389C9.96518 13.755 9.85219 13.7941 9.75 13.854C9.54414 13.9727 9.3936 14.1681 9.33121 14.3974C9.26883 14.6267 9.29967 14.8713 9.417 15.078C9.67804 15.5323 10.0543 15.9098 10.5078 16.1722C10.9613 16.4347 11.476 16.5729 12 16.5729C12.524 16.5729 13.0387 16.4347 13.4922 16.1722C13.9457 15.9098 14.322 15.5323 14.583 15.078C14.7003 14.8713 14.7312 14.6267 14.6688 14.3974C14.6064 14.1681 14.4559 13.9727 14.25 13.854ZM14.7 9.3C14.522 9.3 14.348 9.35278 14.2 9.45168C14.052 9.55057 13.9366 9.69113 13.8685 9.85558C13.8004 10.02 13.7826 10.201 13.8173 10.3756C13.852 10.5502 13.9377 10.7105 14.0636 10.8364C14.1895 10.9623 14.3498 11.048 14.5244 11.0827C14.699 11.1174 14.88 11.0996 15.0444 11.0315C15.2089 10.9634 15.3494 10.848 15.4483 10.7C15.5472 10.552 15.6 10.378 15.6 10.2C15.6 9.9613 15.5052 9.73238 15.3364 9.5636C15.1676 9.39482 14.9387 9.3 14.7 9.3ZM12 3C10.22 3 8.47991 3.52784 6.99987 4.51677C5.51983 5.50571 4.36628 6.91131 3.68509 8.55585C3.0039 10.2004 2.82567 12.01 3.17294 13.7558C3.5202 15.5016 4.37737 17.1053 5.63604 18.364C6.89472 19.6226 8.49836 20.4798 10.2442 20.8271C11.99 21.1743 13.7996 20.9961 15.4442 20.3149C17.0887 19.6337 18.4943 18.4802 19.4832 17.0001C20.4722 15.5201 21 13.78 21 12C21 10.8181 20.7672 9.64778 20.3149 8.55585C19.8626 7.46392 19.1997 6.47177 18.364 5.63604C17.5282 4.80031 16.5361 4.13738 15.4442 3.68508C14.3522 3.23279 13.1819 3 12 3ZM12 19.2C10.3236 19.2072 8.69719 18.6293 7.40129 17.5657C6.10539 16.5022 5.22122 15.0198 4.90127 13.3742C4.58132 11.7286 4.84564 10.0229 5.64864 8.55129C6.45165 7.07969 7.743 5.93443 9.3 5.313C9.29075 5.44183 9.29075 5.57117 9.3 5.7C9.3 6.41608 9.58447 7.10284 10.0908 7.60919C10.5972 8.11553 11.2839 8.4 12 8.4C12.2387 8.4 12.4676 8.30518 12.6364 8.13639C12.8052 7.96761 12.9 7.73869 12.9 7.5C12.9 7.2613 12.8052 7.03239 12.6364 6.8636C12.4676 6.69482 12.2387 6.6 12 6.6C11.7613 6.6 11.5324 6.50518 11.3636 6.3364C11.1948 6.16761 11.1 5.93869 11.1 5.7C11.1 5.4613 11.1948 5.23239 11.3636 5.0636C11.5324 4.89482 11.7613 4.8 12 4.8C13.9096 4.8 15.7409 5.55857 17.0912 6.90883C18.4414 8.25909 19.2 10.0904 19.2 12C19.2 13.9096 18.4414 15.7409 17.0912 17.0912C15.7409 18.4414 13.9096 19.2 12 19.2Z" fill="#ADB2D4"/>
</svg>
