<svg width="148" height="26" viewBox="0 0 148 26" fill="none" xmlns="http://www.w3.org/2000/svg">
<path d="M0.611328 1.34082H6.09024V20.1709H16.0452V24.7948H0.611328V1.34082Z" fill="white"/>
<path d="M12.3867 1.34082H17.8321L23.7453 11.8953L29.4581 1.34082H34.9706L26.4517 17.122V24.7948H21.0063V17.2566L12.3867 1.34082Z" fill="white"/>
<path d="M51.028 7.84057C50.4269 7.46111 49.7923 7.12551 49.1241 6.83582C48.4558 6.54511 47.7988 6.29928 47.153 6.09833C46.5072 5.89738 45.8888 5.74131 45.2989 5.6291C44.708 5.51792 44.1801 5.46181 43.7123 5.46181C42.8437 5.46181 42.1531 5.6291 41.6415 5.9647C41.1289 6.3003 40.8736 6.79094 40.8736 7.43867C40.8736 8.17616 41.1798 8.75147 41.792 9.16459C42.4043 9.57771 43.1671 9.93473 44.0804 10.2367C44.9938 10.5386 45.9895 10.8456 47.0706 11.1578C48.1507 11.4709 49.1474 11.8891 50.0608 12.4145C50.9741 12.9398 51.7359 13.6375 52.3492 14.5086C52.9614 15.3797 53.2676 16.5304 53.2676 17.9595C53.2676 19.1213 53.0275 20.1434 52.5495 21.0247C52.0705 21.9081 51.4185 22.6496 50.5947 23.2525C49.7709 23.8553 48.7955 24.3133 47.6717 24.6265C46.5468 24.9386 45.3385 25.0957 44.0469 25.0957C43.0888 25.0957 42.1307 25.006 41.1737 24.8274C40.2156 24.6489 39.2911 24.397 38.4012 24.0736C37.5102 23.7503 36.6589 23.3535 35.8453 22.8842C35.0316 22.415 34.2922 21.9019 33.624 21.343L35.7954 17.0547C36.3965 17.5912 37.0536 18.0768 37.7665 18.5123C38.4795 18.9479 39.2026 19.3222 39.9379 19.6344C40.6733 19.9475 41.3964 20.1872 42.1094 20.3545C42.8223 20.5218 43.4905 20.6055 44.114 20.6055C45.1606 20.6055 45.9854 20.3994 46.5865 19.9853C47.1876 19.5722 47.4886 18.9968 47.4886 18.2593C47.4886 17.5004 47.1825 16.9139 46.5702 16.5008C45.9569 16.0877 45.189 15.7296 44.2655 15.4287C43.341 15.1268 42.3443 14.831 41.2754 14.5413C40.2064 14.2516 39.2097 13.8487 38.2852 13.3356C37.3607 12.8215 36.5928 12.1411 35.9806 11.2914C35.3683 10.4427 35.0622 9.31454 35.0622 7.90687C35.0622 6.8348 35.2798 5.86881 35.7141 5.00891C36.1484 4.14901 36.7667 3.41764 37.5682 2.81479C38.3696 2.21194 39.3328 1.74272 40.4577 1.40712C41.5825 1.07152 42.8234 0.904236 44.1821 0.904236C45.8522 0.904236 47.4673 1.13885 49.0264 1.60807C50.5846 2.07729 51.9545 2.70258 53.1353 3.48394L51.028 7.84057Z" fill="white"/>
<path d="M56.3164 1.34082H74.2564V5.73009H61.7953V10.8232H73.0206V15.2125H61.7953V20.4055H74.6235V24.7948H56.3164V1.34082Z" fill="white"/>
<path d="M78.1309 1.34082H83.0412L94.2666 16.4518V1.34082H99.3783V24.7948H94.4679L83.3097 9.75112V24.7948H78.1319V1.34082H78.1309Z" fill="white"/>
<path d="M113.672 1.34082C115.498 1.34082 117.169 1.62541 118.683 2.19562C120.198 2.76481 121.501 3.56963 122.592 4.60804C123.683 5.64645 124.53 6.88581 125.132 8.32714C125.733 9.76745 126.034 11.3485 126.034 13.0683C126.034 14.7891 125.728 16.3682 125.115 17.8095C124.503 19.2508 123.646 20.4902 122.543 21.5286C121.441 22.567 120.121 23.3718 118.585 23.941C117.048 24.5102 115.356 24.7958 113.507 24.7958H103.752V1.34082H113.672ZM113.839 20.3382C114.796 20.3382 115.682 20.1597 116.495 19.8027C117.307 19.4457 118.009 18.9479 118.599 18.3114C119.189 17.6749 119.652 16.9159 119.985 16.0336C120.32 15.1513 120.487 14.1741 120.487 13.102C120.487 12.0299 120.314 11.0415 119.969 10.1367C119.623 9.23192 119.139 8.46178 118.516 7.82527C117.892 7.18876 117.163 6.692 116.328 6.33396C115.493 5.97694 114.575 5.79844 113.572 5.79844H109.229V20.3392H113.839V20.3382Z" fill="white"/>
<path d="M128.858 1.34082H146.797V5.73009H134.336V10.8232H145.562V15.2125H134.336V20.4055H147.165V24.7948H128.857V1.34082H128.858Z" fill="white"/>
</svg>
