<svg width="34" height="34" viewBox="0 0 34 34" fill="none" xmlns="http://www.w3.org/2000/svg">
<path d="M33.2728 7.06401C29.418 6.04073 28.1935 4.8136 27.1725 0.950562C27.0536 0.499471 26.4132 0.499471 26.2944 0.950562C25.2733 4.8136 24.0488 6.04073 20.194 7.06401C19.7439 7.18309 19.7439 7.82491 20.194 7.94399C24.0488 8.96727 25.2733 10.1944 26.2944 14.0574C26.4132 14.5085 27.0536 14.5085 27.1725 14.0574C28.1935 10.1944 29.418 8.96727 33.2728 7.94399C33.7229 7.82491 33.7229 7.18309 33.2728 7.06401Z" fill="#FFBD3D"/>
<path d="M7.08743 12.795C9.97912 12.795 12.3233 10.4458 12.3233 7.54791C12.3233 4.65 9.97912 2.30078 7.08743 2.30078C4.19574 2.30078 1.85156 4.65 1.85156 7.54791C1.85156 10.4458 4.19574 12.795 7.08743 12.795Z" fill="#32CCC0"/>
<path d="M32.9704 25.9758C30.4305 24.5038 28.986 23.0552 27.5162 20.5098C27.1804 19.9289 26.3439 19.9289 26.009 20.5098C24.5403 23.0552 23.0948 24.5028 20.5548 25.9758C19.9752 26.3123 19.9752 27.1506 20.5548 27.4862C23.0948 28.9581 24.5393 30.4067 26.009 32.9521C26.3449 33.533 27.1814 33.533 27.5162 32.9521C28.985 30.4067 30.4305 28.9591 32.9704 27.4862C33.5501 27.1506 33.5501 26.3113 32.9704 25.9758Z" fill="#32CCC0"/>
<path d="M6.0142 20.9103L1.27924 25.6551C0.686867 26.2487 0.686867 27.2111 1.27924 27.8047L6.0142 32.5496C6.60658 33.1432 7.56691 33.1432 8.15929 32.5496L12.8942 27.8047C13.4866 27.2111 13.4866 26.2487 12.8942 25.6551L8.15929 20.9103C7.56691 20.3156 6.60658 20.3156 6.0142 20.9103Z" fill="#32CCC0"/>
</svg>
