<svg width="24" height="24" viewBox="0 0 24 24" fill="none" xmlns="http://www.w3.org/2000/svg">
<circle cx="12" cy="12" r="10" fill="#171D4B"/>
<path d="M16.8969 8.98769C15.7185 8.67243 15.3442 8.29437 15.032 7.10423C14.9957 6.96526 14.7999 6.96526 14.7636 7.10423C14.4514 8.29437 14.0771 8.67243 12.8987 8.98769C12.7611 9.02438 12.7611 9.22211 12.8987 9.2588C14.0771 9.57406 14.4514 9.95212 14.7636 11.1423C14.7999 11.2812 14.9957 11.2812 15.032 11.1423C15.3442 9.95212 15.7185 9.57406 16.8969 9.2588C17.0345 9.22211 17.0345 9.02438 16.8969 8.98769Z" fill="#FFBD3D"/>
<path d="M8.90403 10.7332C9.78435 10.7332 10.498 10.0125 10.498 9.12335C10.498 8.23425 9.78435 7.51349 8.90403 7.51349C8.0237 7.51349 7.31006 8.23425 7.31006 9.12335C7.31006 10.0125 8.0237 10.7332 8.90403 10.7332Z" fill="#32CCC0"/>
<path d="M16.7868 14.7268C16.0138 14.2753 15.5742 13.831 15.1269 13.0504C15.0247 12.8722 14.7701 12.8722 14.6682 13.0504C14.2213 13.831 13.7814 14.275 13.0084 14.7268C12.832 14.83 12.832 15.0871 13.0084 15.19C13.7814 15.6414 14.221 16.0857 14.6682 16.8664C14.7704 17.0446 15.025 17.0446 15.1269 16.8664C15.5739 16.0857 16.0138 15.6417 16.7868 15.19C16.9631 15.0871 16.9631 14.8297 16.7868 14.7268Z" fill="#32CCC0"/>
<path d="M8.57719 13.1726L7.13529 14.6289C6.9549 14.811 6.9549 15.1064 7.13529 15.2886L8.57719 16.7449C8.75758 16.9271 9.05002 16.9271 9.23041 16.7449L10.6723 15.2886C10.8527 15.1064 10.8527 14.811 10.6723 14.6289L9.23041 13.1726C9.05002 12.9901 8.75758 12.9901 8.57719 13.1726Z" fill="#32CCC0"/>
</svg>
