<svg width="147" height="26" viewBox="0 0 147 26" fill="none" xmlns="http://www.w3.org/2000/svg">
<g id="Vector">
<path d="M24.2027 5.42118C21.386 4.64066 20.4912 3.70465 19.7451 0.758057C19.6583 0.413981 19.1903 0.413981 19.1035 0.758057C18.3574 3.70465 17.4626 4.64066 14.6459 5.42118C14.317 5.51201 14.317 6.00157 14.6459 6.0924C17.4626 6.87292 18.3574 7.80893 19.1035 10.7555C19.1903 11.0996 19.6583 11.0996 19.7451 10.7555C20.4912 7.80893 21.386 6.87292 24.2027 6.0924C24.5316 6.00157 24.5316 5.51201 24.2027 5.42118Z" fill="#FFBD3D"/>
<path d="M5.06896 9.79263C7.18194 9.79263 8.89484 8.00073 8.89484 5.7903C8.89484 3.57988 7.18194 1.78797 5.06896 1.78797C2.95598 1.78797 1.24307 3.57988 1.24307 5.7903C1.24307 8.00073 2.95598 9.79263 5.06896 9.79263Z" fill="#32CCC0"/>
<path d="M23.982 19.8464C22.126 18.7236 21.0705 17.6187 19.9965 15.6771C19.7511 15.2341 19.1399 15.2341 18.8952 15.6771C17.822 17.6187 16.7658 18.7229 14.9098 19.8464C14.4863 20.1031 14.4863 20.7425 14.9098 20.9985C16.7658 22.1212 17.8213 23.2261 18.8952 25.1677C19.1406 25.6108 19.7519 25.6108 19.9965 25.1677C21.0698 23.2261 22.126 22.122 23.982 20.9985C24.4055 20.7425 24.4055 20.1023 23.982 19.8464Z" fill="#32CCC0"/>
<path d="M4.28451 15.9826L0.824639 19.6018C0.391787 20.0546 0.391787 20.7886 0.824639 21.2414L4.28451 24.8606C4.71736 25.3134 5.41908 25.3134 5.85193 24.8606L9.3118 21.2414C9.74465 20.7886 9.74465 20.0546 9.3118 19.6018L5.85193 15.9826C5.41908 15.529 4.71736 15.529 4.28451 15.9826Z" fill="#32CCC0"/>
<path d="M35.4099 3.77437H39.563V18.6742H47.1091V22.3329H35.4099V3.77437Z" fill="#171D4B"/>
<path d="M44.3359 3.77437H48.4636L52.9459 12.1258L57.2763 3.77437H61.4549L54.9974 16.2616V22.3329H50.8697V16.3682L44.3359 3.77437Z" fill="#171D4B"/>
<path d="M73.6274 8.9175C73.1718 8.61725 72.6907 8.3517 72.1842 8.12247C71.6777 7.89244 71.1797 7.69792 70.6901 7.53891C70.2006 7.37991 69.7318 7.25641 69.2847 7.16763C68.8367 7.07965 68.4366 7.03526 68.082 7.03526C67.4236 7.03526 66.9001 7.16763 66.5123 7.43318C66.1238 7.69873 65.9303 8.08696 65.9303 8.59949C65.9303 9.18305 66.1623 9.63828 66.6264 9.96517C67.0905 10.2921 67.6687 10.5746 68.3611 10.8135C69.0534 11.0524 69.8081 11.2953 70.6277 11.5423C71.4464 11.7901 72.202 12.121 72.8943 12.5367C73.5866 12.9524 74.164 13.5045 74.6289 14.1938C75.093 14.8831 75.3251 15.7935 75.3251 16.9243C75.3251 17.8437 75.1431 18.6524 74.7808 19.3498C74.4177 20.0488 73.9235 20.6355 73.299 21.1126C72.6745 21.5896 71.9352 21.952 71.0833 22.1998C70.2306 22.4468 69.3147 22.5711 68.3356 22.5711C67.6094 22.5711 66.8831 22.5 66.1577 22.3588C65.4314 22.2175 64.7306 22.0182 64.0561 21.7623C63.3807 21.5065 62.7354 21.1925 62.1187 20.8212C61.5019 20.4499 60.9414 20.0439 60.4349 19.6016L62.0809 16.2084C62.5365 16.6329 63.0345 17.0171 63.575 17.3618C64.1154 17.7064 64.6636 18.0027 65.221 18.2496C65.7784 18.4974 66.3265 18.6871 66.867 18.8195C67.4074 18.9519 67.9139 19.018 68.3865 19.018C69.1798 19.018 69.8051 18.855 70.2607 18.5273C70.7163 18.2004 70.9445 17.7452 70.9445 17.1616C70.9445 16.5611 70.7125 16.097 70.2484 15.7701C69.7835 15.4432 69.2014 15.1599 68.5014 14.9218C67.8006 14.6829 67.045 14.4488 66.2348 14.2196C65.4245 13.9904 64.669 13.6716 63.9682 13.2656C63.2674 12.8588 62.6853 12.3204 62.2212 11.6481C61.7571 10.9765 61.525 10.0838 61.525 8.96997C61.525 8.12166 61.69 7.3573 62.0192 6.67689C62.3484 5.99647 62.8171 5.41775 63.4247 4.94073C64.0322 4.46371 64.7623 4.09243 65.6149 3.82688C66.4676 3.56133 67.4082 3.42896 68.4382 3.42896C69.7041 3.42896 70.9283 3.6146 72.1102 3.98588C73.2913 4.35717 74.3298 4.85195 75.2249 5.47021L73.6274 8.9175Z" fill="#171D4B"/>
<path d="M77.6354 3.77437H91.2342V7.24749H81.7885V11.2775H90.2975V14.7507H81.7885V18.8598H91.5126V22.3329H77.6354V3.77437Z" fill="#171D4B"/>
<path d="M94.1712 3.77437H97.8933L106.402 15.7313V3.77437H110.277V22.3329H106.555L98.0969 10.4292V22.3329H94.1719V3.77437H94.1712Z" fill="#171D4B"/>
<path d="M121.112 3.77437C122.496 3.77437 123.763 3.99956 124.911 4.45075C126.059 4.90114 127.046 5.53797 127.874 6.35964C128.701 7.1813 129.342 8.16198 129.799 9.30247C130.254 10.4421 130.482 11.6932 130.482 13.054C130.482 14.4157 130.25 15.6651 129.786 16.8056C129.322 17.9461 128.672 18.9268 127.837 19.7485C127.001 20.5701 126 21.207 124.836 21.6573C123.671 22.1077 122.388 22.3337 120.987 22.3337H113.592V3.77437H121.112ZM121.239 18.8065C121.964 18.8065 122.636 18.6653 123.252 18.3828C123.868 18.1003 124.4 17.7064 124.847 17.2027C125.294 16.6991 125.645 16.0986 125.898 15.4004C126.151 14.7022 126.278 13.929 126.278 13.0807C126.278 12.2324 126.147 11.4503 125.885 10.7343C125.623 10.0184 125.256 9.40901 124.784 8.90535C124.311 8.4017 123.758 8.00862 123.125 7.72532C122.492 7.44282 121.796 7.30157 121.036 7.30157H117.744V18.8073H121.239V18.8065Z" fill="#171D4B"/>
<path d="M146.222 3.77437V7.24749H136.776V11.2775H145.285V14.7507H136.776V18.8598H146.5V22.3329H132.623V3.77437H146.222Z" fill="#171D4B"/>
</g>
</svg>
