<svg width="24" height="24" viewBox="0 0 24 24" fill="none" xmlns="http://www.w3.org/2000/svg">
<path d="M9.60087 10.7049C10.6524 10.7049 11.5049 9.85243 11.5049 8.80088C11.5049 7.74933 10.6524 6.89687 9.60087 6.89687C8.54933 6.89687 7.69687 7.74933 7.69687 8.80088C7.69687 9.85243 8.54933 10.7049 9.60087 10.7049Z" fill="#ADB2D4"/>
<path d="M15.352 4H8.648C5.736 4 4 5.736 4 8.648V15.352C4 16.224 4.152 16.984 4.448 17.624C5.136 19.144 6.608 20 8.648 20H15.352C18.264 20 20 18.264 20 15.352V8.648C20 5.736 18.264 4 15.352 4ZM18.696 12.4C18.072 11.864 17.064 11.864 16.44 12.4L13.112 15.256C12.488 15.792 11.48 15.792 10.856 15.256L10.584 15.032C10.016 14.536 9.112 14.488 8.472 14.92L5.48 16.928C5.304 16.48 5.2 15.96 5.2 15.352V8.648C5.2 6.392 6.392 5.2 8.648 5.2H15.352C17.608 5.2 18.8 6.392 18.8 8.648V12.488L18.696 12.4Z" fill="#ADB2D4"/>
</svg>
