<svg width="16" height="16" viewBox="0 0 16 16" fill="none" xmlns="http://www.w3.org/2000/svg">
<g clip-path="url(#clip0_6177_28837)">
<path d="M13.8128 5.84647L11.5328 8.2398C11.3794 8.3998 11.2661 8.5998 11.2128 8.81313L10.4995 11.4665C10.2328 12.4531 8.99278 12.7865 8.25945 12.0665L3.88612 7.71314C3.16612 6.99314 3.48612 5.76647 4.46612 5.49314L7.13278 4.74646C7.33278 4.68646 7.51945 4.58647 7.67945 4.44647L10.1328 2.19313C10.4328 1.9198 10.8995 1.93314 11.1861 2.21314L13.7861 4.7998C14.0795 5.08646 14.0861 5.55313 13.8061 5.85313L13.8128 5.84647Z" stroke="#171D4B" stroke-width="1.5" stroke-linecap="round" stroke-linejoin="round"/>
<path d="M2.01302 13.9865L6.10635 9.91313" stroke="#171D4B" stroke-width="1.5" stroke-linecap="round" stroke-linejoin="round"/>
<path d="M7.45302 4.65313L9.39969 6.59979" stroke="#171D4B" stroke-width="1.5" stroke-linecap="round" stroke-linejoin="round"/>
</g>
<defs>
<clipPath id="clip0_6177_28837">
<rect width="16" height="16" fill="white"/>
</clipPath>
</defs>
</svg>
