<svg width="24" height="24" viewBox="0 0 24 24" fill="none" xmlns="http://www.w3.org/2000/svg">
<path d="M12.3913 10.1124C12.3913 12.1086 11.2174 14.9032 11.2174 14.9032M11.6087 10.9109C11.6087 10.9109 12.7826 7.71702 10.0435 5.32162C7.30435 2.92622 3 3.72469 3 3.72469C3 3.72469 3 6.91856 5.34783 9.31396C7.69565 11.7094 11.6087 10.9109 11.6087 10.9109ZM12.3913 9.31396C12.3913 9.31396 11.2174 6.12009 13.9565 3.72469C16.6957 1.32929 21 2.12775 21 2.12775C21 2.12775 21 5.32162 18.6522 7.71702C16.3043 10.1124 12.3913 9.31396 12.3913 9.31396ZM6.24912 14.9032H16.4652C16.4652 14.9032 17.251 22 11.3571 22C5.46327 22 6.24912 14.9032 6.24912 14.9032Z" stroke="#ADB2D4" stroke-width="1.5" stroke-linecap="round" stroke-linejoin="round"/>
</svg>
