<svg width="24" height="24" viewBox="0 0 24 24" fill="none" xmlns="http://www.w3.org/2000/svg">
<path d="M14.5082 4.45316L13.97 5.27474L14.9043 5.57756C16.5246 6.10271 17.9637 7.05644 19.0638 8.33171C20.1638 9.60686 20.8823 11.154 21.1418 12.8021C21.4013 14.4501 21.192 16.1367 20.5363 17.6763C19.8806 19.2159 18.8035 20.5497 17.422 21.5293C16.0403 22.509 14.4084 23.0958 12.7064 23.2235C11.0042 23.3513 9.29982 23.0149 7.78152 22.2523C6.26332 21.4899 4.99118 20.3315 4.10404 18.9067C3.21704 17.4821 2.74891 15.846 2.75 14.1787C2.7531 12.2764 3.36597 10.422 4.50386 8.87806C5.64198 7.33385 7.24814 6.17815 9.09631 5.57736L10.0295 5.27401L9.49184 4.45316L8.35962 2.72455L8.35916 2.72385C8.32521 2.67214 8.30703 2.61361 8.30522 2.5545C8.30341 2.4954 8.31798 2.43615 8.34849 2.38292L9.18179 0.929191L9.18194 0.928924C9.21177 0.87685 9.25621 0.83174 9.31214 0.799632L8.9414 0.153821L9.31214 0.799632C9.36817 0.76747 9.43298 0.749982 9.4998 0.75H9.5H14.5L14.5002 0.75C14.567 0.749982 14.6318 0.76747 14.6879 0.799632L15.0586 0.153821L14.6879 0.799632C14.7438 0.83174 14.7882 0.876849 14.8181 0.928923L14.8182 0.929191L15.6515 2.38292C15.6515 2.38293 15.6515 2.38295 15.6515 2.38297C15.682 2.43619 15.6966 2.49542 15.6948 2.5545C15.693 2.6136 15.6748 2.67214 15.6408 2.72385L15.6404 2.72455L14.5082 4.45316ZM10.5749 4.81049L10.8215 5.18693L11.2697 5.14646C11.5262 5.1233 11.7681 5.11242 12 5.11242C12.2319 5.11242 12.4738 5.1233 12.7303 5.14646L13.1785 5.18693L13.4251 4.81049L14.664 2.91939L14.9156 2.53542L14.6881 2.13673L14.5014 1.80955L14.2856 1.43121H13.85H10.15H9.71442L9.49857 1.80955L9.3119 2.13673L9.08443 2.53542L9.33597 2.91939L10.5749 4.81049ZM12 5.79363L11.9977 5.79363C9.74322 5.80056 7.58036 6.68256 5.98204 8.25139C4.38324 9.82068 3.47932 11.9501 3.47222 14.1755V14.1779C3.47222 15.8393 3.97422 17.4622 4.91304 18.8413C5.85174 20.2202 7.18446 21.2929 8.7411 21.9258C10.2976 22.5586 12.0096 22.724 13.6611 22.4015C15.3127 22.0791 16.8316 21.2828 18.0251 20.1113C19.2187 18.9397 20.0333 17.4453 20.3634 15.8162C20.6935 14.187 20.524 12.4985 19.8767 10.9648C19.2295 9.43119 18.1346 8.12267 16.7324 7.20308C15.3304 6.28359 13.6836 5.79363 12 5.79363Z" fill="#ADB2D4" stroke="#ADB2D4" stroke-width="1.5"/>
</svg>
