<svg width="24" height="24" viewBox="0 0 24 24" fill="none" xmlns="http://www.w3.org/2000/svg">
<g id="share">
<path id="Vector" d="M9.51478 9.24125L8.89875 9.66905L9.75435 10.9011L10.3704 10.4733L9.51478 9.24125ZM10.3704 13.527L9.75435 13.0992L8.89875 14.3312L9.51478 14.759L10.3704 13.527ZM9.19258 12.3573C9.19258 13.3529 8.42528 14.1073 7.54258 14.1073V15.6073C9.31084 15.6073 10.6926 14.123 10.6926 12.3573H9.19258ZM7.54258 14.1073C6.65987 14.1073 5.89258 13.3529 5.89258 12.3573H4.39258C4.39258 14.123 5.77432 15.6073 7.54258 15.6073V14.1073ZM5.89258 12.3573C5.89258 11.3616 6.65987 10.6073 7.54258 10.6073V9.10728C5.77432 9.10728 4.39258 10.5915 4.39258 12.3573H5.89258ZM7.54258 10.6073C8.42528 10.6073 9.19258 11.3616 9.19258 12.3573H10.6926C10.6926 10.5915 9.31084 9.10728 7.54258 9.10728V10.6073ZM13.6291 6.38411L9.51478 9.24125L10.3704 10.4733L14.4847 7.61617L13.6291 6.38411ZM14.4847 16.3841L10.3704 13.527L9.51478 14.759L13.6291 17.6162L14.4847 16.3841ZM18.1069 18.0716C18.1069 19.0672 17.3396 19.8216 16.4569 19.8216V21.3216C18.2251 21.3216 19.6069 19.8373 19.6069 18.0716H18.1069ZM16.4569 19.8216C15.5742 19.8216 14.8069 19.0672 14.8069 18.0716H13.3069C13.3069 19.8373 14.6886 21.3216 16.4569 21.3216V19.8216ZM14.8069 18.0716C14.8069 17.0759 15.5742 16.3216 16.4569 16.3216V14.8216C14.6886 14.8216 13.3069 16.3058 13.3069 18.0716H14.8069ZM16.4569 16.3216C17.3396 16.3216 18.1069 17.0759 18.1069 18.0716H19.6069C19.6069 16.3058 18.2251 14.8216 16.4569 14.8216V16.3216ZM18.1069 5.92871C18.1069 6.92436 17.3396 7.67871 16.4569 7.67871V9.17871C18.2251 9.17871 19.6069 7.69449 19.6069 5.92871H18.1069ZM16.4569 7.67871C15.5742 7.67871 14.8069 6.92436 14.8069 5.92871H13.3069C13.3069 7.69449 14.6886 9.17871 16.4569 9.17871V7.67871ZM14.8069 5.92871C14.8069 4.93307 15.5742 4.17871 16.4569 4.17871V2.67871C14.6886 2.67871 13.3069 4.16294 13.3069 5.92871H14.8069ZM16.4569 4.17871C17.3396 4.17871 18.1069 4.93307 18.1069 5.92871H19.6069C19.6069 4.16294 18.2251 2.67871 16.4569 2.67871V4.17871Z" fill="#ADB2D4"/>
</g>
</svg>
