<svg width="24" height="24" viewBox="0 0 24 24" fill="none" xmlns="http://www.w3.org/2000/svg">
<path d="M9.51503 9.24101L8.899 9.66881L9.75459 10.9009L10.3706 10.4731L9.51503 9.24101ZM10.3706 13.5267L9.75459 13.0989L8.899 14.331L9.51503 14.7588L10.3706 13.5267ZM9.19282 12.357C9.19282 13.3527 8.42553 14.107 7.54282 14.107V15.607C9.31108 15.607 10.6928 14.1228 10.6928 12.357H9.19282ZM7.54282 14.107C6.66012 14.107 5.89282 13.3527 5.89282 12.357H4.39282C4.39282 14.1228 5.77456 15.607 7.54282 15.607V14.107ZM5.89282 12.357C5.89282 11.3614 6.66012 10.607 7.54282 10.607V9.10704C5.77456 9.10704 4.39282 10.5913 4.39282 12.357H5.89282ZM7.54282 10.607C8.42553 10.607 9.19282 11.3614 9.19282 12.357H10.6928C10.6928 10.5913 9.31108 9.10704 7.54282 9.10704V10.607ZM13.6293 6.38387L9.51503 9.24101L10.3706 10.4731L14.4849 7.61592L13.6293 6.38387ZM14.4849 16.3839L10.3706 13.5267L9.51503 14.7588L13.6293 17.6159L14.4849 16.3839ZM18.1071 18.0713C18.1071 19.067 17.3398 19.8213 16.4571 19.8213V21.3213C18.2254 21.3213 19.6071 19.8371 19.6071 18.0713H18.1071ZM16.4571 19.8213C15.5744 19.8213 14.8071 19.067 14.8071 18.0713H13.3071C13.3071 19.8371 14.6889 21.3213 16.4571 21.3213V19.8213ZM14.8071 18.0713C14.8071 17.0757 15.5744 16.3213 16.4571 16.3213V14.8213C14.6889 14.8213 13.3071 16.3056 13.3071 18.0713H14.8071ZM16.4571 16.3213C17.3398 16.3213 18.1071 17.0757 18.1071 18.0713H19.6071C19.6071 16.3056 18.2254 14.8213 16.4571 14.8213V16.3213ZM18.1071 5.92847C18.1071 6.92411 17.3398 7.67847 16.4571 7.67847V9.17847C18.2254 9.17847 19.6071 7.69424 19.6071 5.92847H18.1071ZM16.4571 7.67847C15.5744 7.67847 14.8071 6.92411 14.8071 5.92847H13.3071C13.3071 7.69424 14.6889 9.17847 16.4571 9.17847V7.67847ZM14.8071 5.92847C14.8071 4.93282 15.5744 4.17847 16.4571 4.17847V2.67847C14.6889 2.67847 13.3071 4.16269 13.3071 5.92847H14.8071ZM16.4571 4.17847C17.3398 4.17847 18.1071 4.93282 18.1071 5.92847H19.6071C19.6071 4.16269 18.2254 2.67847 16.4571 2.67847V4.17847Z" fill="#171D4B"/>
</svg>
