<svg width="20" height="16" viewBox="0 0 20 16" fill="none" xmlns="http://www.w3.org/2000/svg">
<g id="Vector">
<path fill-rule="evenodd" clip-rule="evenodd" d="M7.49892 1.21229L17.2475 5.75298C18.0691 6.13844 18.7648 6.7532 19.2524 7.52488C19.74 8.29656 19.9994 9.19303 20 10.1087V10.1093C20 10.7798 19.7365 11.4229 19.2674 11.8971C18.7984 12.3713 18.1622 12.6376 17.4989 12.6376H2.50111C1.83778 12.6376 1.20162 12.3713 0.732575 11.8971C0.26353 11.4229 2.31449e-05 10.7798 2.31449e-05 10.1093V3.56994C2.31449e-05 3.56993 2.31449e-05 3.56995 2.31449e-05 3.56994C1.8233e-05 3.32117 0.0487453 3.07484 0.143393 2.8452C0.238045 2.61556 0.376746 2.40714 0.551494 2.23197C0.726242 2.0568 0.933575 1.91835 1.16153 1.82461C1.38948 1.73087 1.63355 1.68369 1.87963 1.6858L1.88282 1.68582L1.886 1.68588C2.19554 1.69092 2.49917 1.7724 2.77044 1.92322C3.03881 2.07244 3.26746 2.28506 3.4369 2.54288C3.6158 2.80448 3.92961 3.01768 4.38493 3.1467C4.84179 3.27616 5.38445 3.30254 5.91233 3.23284C6.44462 3.16254 6.90118 3.00276 7.199 2.81504C7.46414 2.64791 7.4959 2.53654 7.49892 2.5234V1.21229ZM1.86242 3.37132C1.83753 3.3715 1.81289 3.37646 1.78982 3.38595C1.7658 3.39583 1.74395 3.41042 1.72553 3.42888C1.70712 3.44734 1.6925 3.4693 1.68252 3.4935C1.67255 3.51771 1.66741 3.54366 1.66742 3.56988V10.1093C1.66742 10.3328 1.75525 10.5472 1.9116 10.7052C2.06795 10.8633 2.28 10.9521 2.50111 10.9521H17.4989C17.72 10.9521 17.9321 10.8633 18.0884 10.7052C18.2446 10.5473 18.3325 10.3331 18.3326 10.1098M1.86242 3.37132C1.89899 3.37244 1.9348 3.38232 1.96689 3.40016C1.99994 3.41853 2.02804 3.4448 2.04875 3.47667L2.05298 3.48318L2.05733 3.48961C2.52062 4.1746 3.225 4.56857 3.93489 4.76973C4.64591 4.97121 5.41982 4.99777 6.1283 4.90422C6.83236 4.81125 7.53196 4.59156 8.0812 4.24536C8.31762 4.09635 8.56068 3.89965 8.75668 3.65403L16.5456 7.28196C16.546 7.28213 16.5463 7.28229 16.5467 7.28245C17.0797 7.53273 17.5309 7.93165 17.8473 8.43231C18.1638 8.93326 18.3322 9.51535 18.3326 10.1098" fill="#ADB2D4"/>
<path fill-rule="evenodd" clip-rule="evenodd" d="M1.66742 10.1093L1.66742 13.4761C1.66684 13.5863 1.68789 13.6956 1.72936 13.7976C1.77083 13.8995 1.8319 13.9922 1.90902 14.0702C1.98614 14.1481 2.07779 14.2098 2.17867 14.2518C2.27955 14.2937 2.38765 14.315 2.49671 14.3144L2.50111 14.3144L15.8315 14.3144C16.4937 14.3144 17.1289 14.0489 17.5977 13.5762C18.0664 13.1037 18.3306 12.4627 18.3326 11.7936V10.1093L20 10.1093V11.7948L20 11.7971C19.9971 12.9127 19.5567 13.9818 18.7752 14.7696C17.9938 15.5575 16.9352 16 15.8315 16H2.50315C2.17444 16.0014 1.84869 15.9371 1.54465 15.8107C1.23989 15.6841 0.962998 15.4976 0.729995 15.262C0.496993 15.0265 0.312507 14.7466 0.187211 14.4385C0.0622233 14.1312 -0.0013906 13.8019 2.30535e-05 13.4696L2.31449e-05 10.1093H1.66742Z" fill="#ADB2D4"/>
<path fill-rule="evenodd" clip-rule="evenodd" d="M7.13201 0.0883732C7.54427 -0.118914 8.0447 0.0508945 8.24975 0.467651L9.07908 2.15323L7.58616 2.90389L6.75683 1.2183C6.55178 0.801547 6.71975 0.29566 7.13201 0.0883732Z" fill="#ADB2D4"/>
<path fill-rule="evenodd" clip-rule="evenodd" d="M12.3615 4.67225L10.6941 7.20503C10.439 7.59253 9.92143 7.6976 9.53812 7.43972C9.15481 7.18184 9.05087 6.65866 9.30596 6.27117L10.9734 3.73838L12.3615 4.67225Z" fill="#ADB2D4"/>
<path fill-rule="evenodd" clip-rule="evenodd" d="M14.8582 6.35783L13.1908 8.89061C12.9357 9.27811 12.4182 9.38318 12.0348 9.1253C11.6515 8.86742 11.5476 8.34424 11.8027 7.95675L13.4701 5.42396L14.8582 6.35783Z" fill="#ADB2D4"/>
</g>
</svg>
