<svg width="25" height="24" viewBox="0 0 25 24" fill="none" xmlns="http://www.w3.org/2000/svg">
<g id="Vector">
<path id="Vector_2" d="M12.4439 2.83516C13.1895 5.55497 14.0477 7.49598 15.4822 8.93861C16.9202 10.3847 18.8565 11.2488 21.571 12C18.8565 12.7512 16.9202 13.6153 15.4822 15.0614C14.0477 16.504 13.1895 18.445 12.4439 21.1648C11.6983 18.445 10.8402 16.504 9.40565 15.0614C7.96766 13.6153 6.03133 12.7512 3.31688 12C6.03133 11.2488 7.96766 10.3847 9.40565 8.93861C10.8402 7.49598 11.6983 5.55497 12.4439 2.83516ZM3.25024 11.9393C3.25025 11.9393 3.25023 11.9397 3.2501 11.9404L3.25024 11.9393ZM12.5027 2.75013C12.5027 2.75014 12.5024 2.75012 12.5018 2.75004L12.5027 2.75013Z" stroke="#ADB2D4" stroke-width="1.5"/>
</g>
</svg>
