<svg width="12" height="13" viewBox="0 0 12 13" fill="none" xmlns="http://www.w3.org/2000/svg">
<path d="M5.5042 1.1483C5.66128 0.77875 5.73986 0.593977 5.84924 0.537077C5.94423 0.487641 6.05578 0.487641 6.15078 0.537077C6.26016 0.593977 6.33873 0.77875 6.49581 1.1483L7.74703 4.09178C7.79351 4.20103 7.81672 4.25565 7.85268 4.29748C7.88444 4.33449 7.92332 4.3641 7.96668 4.38436C8.01573 4.40727 8.07246 4.41355 8.18591 4.4261L11.2422 4.76436C11.626 4.80682 11.8178 4.82805 11.9032 4.91955C11.9774 4.99902 12.0118 5.1103 11.9964 5.22033C11.9786 5.34698 11.8353 5.48238 11.5487 5.75325L9.2656 7.9107C9.18092 7.99075 9.13851 8.03081 9.1117 8.07955C9.08796 8.12273 9.0731 8.17062 9.06814 8.22014C9.06251 8.27614 9.07432 8.33462 9.098 8.45167L9.73569 11.6042C9.81575 12 9.85579 12.1979 9.7992 12.3113C9.75 12.4099 9.65976 12.4786 9.5552 12.4972C9.43482 12.5185 9.2677 12.4175 8.93345 12.2154L6.27122 10.6052C6.17242 10.5454 6.12302 10.5156 6.07051 10.5039C6.02403 10.4936 5.97599 10.4936 5.92951 10.5039C5.87699 10.5156 5.82759 10.5454 5.7288 10.6052L3.06657 12.2154C2.73234 12.4175 2.56522 12.5185 2.44484 12.4972C2.34027 12.4786 2.25 12.4099 2.20085 12.3113C2.14427 12.1979 2.18429 12 2.26435 11.6042L2.90201 8.45167C2.92568 8.33462 2.93751 8.27614 2.9319 8.22014C2.92692 8.17062 2.91208 8.12273 2.88833 8.07955C2.8615 8.03081 2.81913 7.99075 2.7344 7.9107L0.451385 5.75325C0.164765 5.48238 0.0214512 5.34698 0.00363285 5.22033C-0.0118378 5.1103 0.0226387 4.99902 0.0968298 4.91955C0.182244 4.82805 0.3741 4.80682 0.757812 4.76436L3.81414 4.4261C3.92757 4.41355 3.98429 4.40727 4.03333 4.38436C4.07672 4.3641 4.11558 4.33449 4.14737 4.29748C4.1833 4.25565 4.20652 4.20103 4.25297 4.09178L5.5042 1.1483Z" fill="#FFBD3D"/>
</svg>
