<svg width="28" height="28" viewBox="0 0 28 28" fill="none" xmlns="http://www.w3.org/2000/svg">
<g clip-path="url(#clip0_179_9268)">
<path d="M10.1715 17.5599C10.4115 18.7554 10.9167 19.8866 11.6493 20.8635C12.3945 21.8405 13.3419 22.6246 14.4534 23.1645C15.5397 23.7044 16.7523 24 17.9649 24C19.1775 24 20.3901 23.7301 21.489 23.203C21.7416 23.0745 22.0321 23.0359 22.2974 23.1002L25.051 23.7686C25.1521 23.7943 25.2531 23.7943 25.3541 23.7686C25.4552 23.7429 25.5436 23.6915 25.6194 23.6144C25.6952 23.5373 25.7331 23.4473 25.7584 23.3573C25.7963 23.2544 25.7963 23.1516 25.7584 23.0616L25.1015 20.3108C25.0384 20.0409 25.0636 19.7452 25.2026 19.501C25.7584 18.3569 26.0236 17.0972 25.9984 15.8246C25.9605 14.5521 25.6447 13.3052 25.0257 12.1868C24.4321 11.0685 23.5605 10.1173 22.5121 9.39745C21.4637 8.67761 20.2638 8.2277 19.0007 8.06059C17.7502 7.90634 16.4618 8.04774 15.2744 8.47194C14.0871 8.89613 13.0135 9.61596 12.1419 10.5415C11.283 11.467 10.6514 12.5982 10.2977 13.8193C9.95671 15.0405 9.9062 16.3259 10.1588 17.5728L10.1715 17.5599Z" stroke="#171D4B" stroke-width="2" stroke-linecap="round" stroke-linejoin="round"/>
<path d="M15 7.49728C14.1297 6.5147 12.9739 5.78104 11.6956 5.36181C10.4174 4.94257 9.01674 4.8902 7.6977 5.19153C6.36507 5.47975 5.15483 6.12169 4.18935 7.02566C3.22387 7.92964 2.54394 9.06941 2.21758 10.3271C1.82323 11.8468 1.97282 13.4583 2.65273 14.8863C2.82951 15.2138 2.8703 15.5937 2.77511 15.9475L2 19L5.2228 18.2663C5.60355 18.1746 6.01152 18.227 6.35148 18.3842C7.30337 18.7904 8.33685 19 9.38392 19H10.1726" stroke="#171D4B" stroke-width="2" stroke-linecap="round" stroke-linejoin="round"/>
</g>
<defs>
<clipPath id="clip0_179_9268">
<rect width="28" height="28" fill="white"/>
</clipPath>
</defs>
</svg>
