<?xml version="1.0" standalone="no"?>
<!DOCTYPE svg PUBLIC "-//W3C//DTD SVG 20010904//EN"
 "http://www.w3.org/TR/2001/REC-SVG-20010904/DTD/svg10.dtd">
<svg version="1.0" xmlns="http://www.w3.org/2000/svg"
 width="700.000000pt" height="700.000000pt" viewBox="0 0 700.000000 700.000000"
 preserveAspectRatio="xMidYMid meet">
<metadata>
Created by potrace 1.14, written by Peter Selinger 2001-2017
</metadata>
<g transform="translate(0.000000,700.000000) scale(0.100000,-0.100000)"
fill="#000000" stroke="none">
<path d="M1095 6990 c-109 -18 -133 -23 -222 -52 -276 -88 -492 -253 -664
-503 -88 -128 -155 -297 -189 -478 -19 -99 -19 -174 -17 -2482 1 -1309 6
-2393 10 -2410 6 -26 19 -79 22 -95 8 -41 31 -122 42 -147 7 -18 13 -35 13
-38 0 -3 12 -29 26 -58 197 -394 537 -648 950 -711 86 -13 400 -15 2439 -15
2413 0 2398 0 2545 37 349 88 640 321 811 649 38 72 96 228 105 283 3 14 7 32
10 40 17 47 19 348 19 2515 0 1944 -2 2390 -13 2435 -8 30 -16 66 -18 80 -23
117 -113 314 -203 440 -45 64 -235 260 -251 260 -5 0 -15 6 -23 14 -54 54
-252 153 -381 190 -199 58 -48 55 -2606 54 -1295 0 -2377 -4 -2405 -8z"/>
</g>
</svg>
